<svg width="22" height="19" viewBox="0 0 22 19" fill="none" xmlns="http://www.w3.org/2000/svg">
<path d="M4.5 19C3.72 19 3.04 18.55 2.71 17.9L0.1 8.44L0 8C0 7.73478 0.105357 7.48043 0.292893 7.29289C0.48043 7.10536 0.734784 7 1 7H5.58L10.18 0.43C10.36 0.17 10.66 0 11 0C11.34 0 11.65 0.17 11.83 0.44L16.42 7H21C21.2652 7 21.5196 7.10536 21.7071 7.29289C21.8946 7.48043 22 7.73478 22 8L21.96 8.29L19.29 17.9C18.96 18.55 18.28 19 17.5 19H4.5ZM11 2.74L8 7H14L11 2.74ZM11 11C10.4696 11 9.96086 11.2107 9.58579 11.5858C9.21071 11.9609 9 12.4696 9 13C9 13.5304 9.21071 14.0391 9.58579 14.4142C9.96086 14.7893 10.4696 15 11 15C11.5304 15 12.0391 14.7893 12.4142 14.4142C12.7893 14.0391 13 13.5304 13 13C13 12.4696 12.7893 11.9609 12.4142 11.5858C12.0391 11.2107 11.5304 11 11 11Z" fill="white"/>
</svg>
