<svg width="122" height="39" viewBox="0 0 122 39" fill="none" xmlns="http://www.w3.org/2000/svg">
<path d="M8.216 29.182C6.88133 29.182 5.68533 28.9653 4.628 28.532C3.57067 28.0987 2.72133 27.4573 2.08 26.608C1.456 25.7587 1.12667 24.736 1.092 23.54H5.824C5.89333 24.216 6.12733 24.736 6.526 25.1C6.92467 25.4467 7.44467 25.62 8.086 25.62C8.74467 25.62 9.26467 25.4727 9.646 25.178C10.0273 24.866 10.218 24.4413 10.218 23.904C10.218 23.4533 10.062 23.0807 9.75 22.786C9.45533 22.4913 9.08267 22.2487 8.632 22.058C8.19867 21.8673 7.57467 21.6507 6.76 21.408C5.58133 21.044 4.61933 20.68 3.874 20.316C3.12867 19.952 2.48733 19.4147 1.95 18.704C1.41267 17.9933 1.144 17.066 1.144 15.922C1.144 14.2233 1.75933 12.8973 2.99 11.944C4.22067 10.9733 5.824 10.488 7.8 10.488C9.81067 10.488 11.4313 10.9733 12.662 11.944C13.8927 12.8973 14.5513 14.232 14.638 15.948H9.828C9.79333 15.3587 9.57667 14.8993 9.178 14.57C8.77933 14.2233 8.268 14.05 7.644 14.05C7.10667 14.05 6.67333 14.1973 6.344 14.492C6.01467 14.7693 5.85 15.1767 5.85 15.714C5.85 16.3033 6.12733 16.7627 6.682 17.092C7.23667 17.4213 8.10333 17.7767 9.282 18.158C10.4607 18.5567 11.414 18.938 12.142 19.302C12.8873 19.666 13.5287 20.1947 14.066 20.888C14.6033 21.5813 14.872 22.474 14.872 23.566C14.872 24.606 14.6033 25.5507 14.066 26.4C13.546 27.2493 12.7833 27.9253 11.778 28.428C10.7727 28.9307 9.58533 29.182 8.216 29.182ZM26.5261 14.336C28.1901 14.336 29.5248 14.8907 30.5301 16C31.5354 17.092 32.0381 18.6 32.0381 20.524V29H27.6181V21.122C27.6181 20.1513 27.3668 19.3973 26.8641 18.86C26.3614 18.3227 25.6854 18.054 24.8361 18.054C23.9868 18.054 23.3108 18.3227 22.8081 18.86C22.3054 19.3973 22.0541 20.1513 22.0541 21.122V29H17.6081V9.76H22.0541V16.442C22.5048 15.8007 23.1201 15.2893 23.9001 14.908C24.6801 14.5267 25.5554 14.336 26.5261 14.336ZM41.7316 29.208C40.3103 29.208 39.0276 28.9047 37.8836 28.298C36.757 27.6913 35.8643 26.8247 35.2056 25.698C34.5643 24.5713 34.2436 23.254 34.2436 21.746C34.2436 20.2553 34.573 18.9467 35.2316 17.82C35.8903 16.676 36.7916 15.8007 37.9356 15.194C39.0796 14.5873 40.3623 14.284 41.7836 14.284C43.205 14.284 44.4876 14.5873 45.6316 15.194C46.7756 15.8007 47.677 16.676 48.3356 17.82C48.9943 18.9467 49.3236 20.2553 49.3236 21.746C49.3236 23.2367 48.9856 24.554 48.3096 25.698C47.651 26.8247 46.741 27.6913 45.5796 28.298C44.4356 28.9047 43.153 29.208 41.7316 29.208ZM41.7316 25.36C42.581 25.36 43.3003 25.048 43.8896 24.424C44.4963 23.8 44.7996 22.9073 44.7996 21.746C44.7996 20.5847 44.505 19.692 43.9156 19.068C43.3436 18.444 42.633 18.132 41.7836 18.132C40.917 18.132 40.1976 18.444 39.6256 19.068C39.0536 19.6747 38.7676 20.5673 38.7676 21.746C38.7676 22.9073 39.045 23.8 39.5996 24.424C40.1716 25.048 40.8823 25.36 41.7316 25.36ZM56.1283 16.546C56.5616 15.87 57.1596 15.324 57.9223 14.908C58.685 14.492 59.5776 14.284 60.6003 14.284C61.7963 14.284 62.8796 14.5873 63.8503 15.194C64.821 15.8007 65.5836 16.6673 66.1383 17.794C66.7103 18.9207 66.9963 20.2293 66.9963 21.72C66.9963 23.2107 66.7103 24.528 66.1383 25.672C65.5836 26.7987 64.821 27.674 63.8503 28.298C62.8796 28.9047 61.7963 29.208 60.6003 29.208C59.595 29.208 58.7023 29 57.9223 28.584C57.1596 28.168 56.5616 27.6307 56.1283 26.972V35.916H51.6823V14.492H56.1283V16.546ZM62.4723 21.72C62.4723 20.6107 62.1603 19.744 61.5363 19.12C60.9296 18.4787 60.1756 18.158 59.2743 18.158C58.3903 18.158 57.6363 18.4787 57.0123 19.12C56.4056 19.7613 56.1023 20.6367 56.1023 21.746C56.1023 22.8553 56.4056 23.7307 57.0123 24.372C57.6363 25.0133 58.3903 25.334 59.2743 25.334C60.1583 25.334 60.9123 25.0133 61.5363 24.372C62.1603 23.7133 62.4723 22.8293 62.4723 21.72ZM85.1368 10.748V29H80.6908V21.486H73.7748V29H69.3288V10.748H73.7748V17.898H80.6908V10.748H85.1368ZM102.672 14.492V29H98.2264V27.024C97.7757 27.6653 97.1604 28.1853 96.3804 28.584C95.6177 28.9653 94.7684 29.156 93.8324 29.156C92.723 29.156 91.7437 28.9133 90.8944 28.428C90.045 27.9253 89.3864 27.206 88.9184 26.27C88.4504 25.334 88.2164 24.2333 88.2164 22.968V14.492H92.6364V22.37C92.6364 23.3407 92.8877 24.0947 93.3904 24.632C93.893 25.1693 94.569 25.438 95.4184 25.438C96.285 25.438 96.9697 25.1693 97.4724 24.632C97.975 24.0947 98.2264 23.3407 98.2264 22.37V14.492H102.672ZM110.312 16.546C110.728 15.87 111.326 15.324 112.106 14.908C112.886 14.492 113.779 14.284 114.784 14.284C115.98 14.284 117.063 14.5873 118.034 15.194C119.005 15.8007 119.767 16.6673 120.322 17.794C120.894 18.9207 121.18 20.2293 121.18 21.72C121.18 23.2107 120.894 24.528 120.322 25.672C119.767 26.7987 119.005 27.674 118.034 28.298C117.063 28.9047 115.98 29.208 114.784 29.208C113.761 29.208 112.869 29.0087 112.106 28.61C111.343 28.194 110.745 27.648 110.312 26.972V29H105.866V9.76H110.312V16.546ZM116.656 21.72C116.656 20.6107 116.344 19.744 115.72 19.12C115.113 18.4787 114.359 18.158 113.458 18.158C112.574 18.158 111.82 18.4787 111.196 19.12C110.589 19.7613 110.286 20.6367 110.286 21.746C110.286 22.8553 110.589 23.7307 111.196 24.372C111.82 25.0133 112.574 25.334 113.458 25.334C114.342 25.334 115.096 25.0133 115.72 24.372C116.344 23.7133 116.656 22.8293 116.656 21.72Z" fill="#010101"/>
</svg>
