<svg width="50" height="50" viewBox="0 0 50 50" fill="none" xmlns="http://www.w3.org/2000/svg">
<circle cx="25" cy="25" r="25" fill="#FEECB3"/>
<path d="M22.4286 15C24.3988 15 26.2882 15.7827 27.6814 17.1758C29.0745 18.5689 29.8571 20.4584 29.8571 22.4286C29.8571 24.2686 29.1829 25.96 28.0743 27.2629L28.3829 27.5714H29.2857L35 33.2857L33.2857 35L27.5714 29.2857V28.3829L27.2629 28.0743C25.96 29.1829 24.2686 29.8571 22.4286 29.8571C20.4584 29.8571 18.5689 29.0745 17.1758 27.6814C15.7827 26.2882 15 24.3988 15 22.4286C15 20.4584 15.7827 18.5689 17.1758 17.1758C18.5689 15.7827 20.4584 15 22.4286 15ZM22.4286 17.2857C19.5714 17.2857 17.2857 19.5714 17.2857 22.4286C17.2857 25.2857 19.5714 27.5714 22.4286 27.5714C25.2857 27.5714 27.5714 25.2857 27.5714 22.4286C27.5714 19.5714 25.2857 17.2857 22.4286 17.2857Z" fill="#010101"/>
</svg>
